HIERARCHY
ROOT Hips
{
	OFFSET 0.00000 0.00000 0.00000
	CHANNELS 6 Xposition Yposition Zposition Zrotation Yrotation Xrotation 
	JOINT LHipJoint
	{
		OFFSET 0 0 0
		CHANNELS 3 Zrotation Yrotation Xrotation
		JOINT LeftUpLeg
		{
			OFFSET 1.56857 -1.73443 1.15205
			CHANNELS 3 Zrotation Yrotation Xrotation
			JOINT LeftLeg
			{
				OFFSET 2.39362 -6.57643 0.00000
				CHANNELS 3 Zrotation Yrotation Xrotation
				JOINT LeftFoot
				{
					OFFSET 2.50952 -6.89485 0.00000
					CHANNELS 3 Zrotation Yrotation Xrotation
					JOINT LeftToeBase
					{
						OFFSET 0.17171 -0.47178 1.88682
						CHANNELS 3 Zrotation Yrotation Xrotation
						End Site
						{
							OFFSET 0.00000 -0.00000 0.98146
						}
					}
				}
			}
		}
	}
	JOINT RHipJoint
	{
		OFFSET 0 0 0
		CHANNELS 3 Zrotation Yrotation Xrotation
		JOINT RightUpLeg
		{
			OFFSET -1.28153 -1.73443 1.15205
			CHANNELS 3 Zrotation Yrotation Xrotation
			JOINT RightLeg
			{
				OFFSET -2.26861 -6.23296 0.00000
				CHANNELS 3 Zrotation Yrotation Xrotation
				JOINT RightFoot
				{
					OFFSET -2.54143 -6.98254 0.00000
					CHANNELS 3 Zrotation Yrotation Xrotation
					JOINT RightToeBase
					{
						OFFSET -0.23309 -0.64041 1.93119
						CHANNELS 3 Zrotation Yrotation Xrotation
						End Site
						{
							OFFSET -0.00000 -0.00000 1.02013
						}
					}
				}
			}
		}
	}
	JOINT LowerBack
	{
		OFFSET 0 0 0
		CHANNELS 3 Zrotation Yrotation Xrotation
		JOINT Spine
		{
			OFFSET -0.07096 2.10460 -0.27878
			CHANNELS 3 Zrotation Yrotation Xrotation
			JOINT Spine1
			{
				OFFSET -0.00826 2.13662 -0.08279
				CHANNELS 3 Zrotation Yrotation Xrotation
				JOINT Neck
				{
					OFFSET 0 0 0
					CHANNELS 3 Zrotation Yrotation Xrotation
					JOINT Neck1
					{
						OFFSET 0.03239 1.77799 0.24435
						CHANNELS 3 Zrotation Yrotation Xrotation
						JOINT Head
						{
							OFFSET 0.01026 1.74194 -0.49664
							CHANNELS 3 Zrotation Yrotation Xrotation
							End Site
							{
								OFFSET 0.00170 1.83057 -0.19653
							}
						}
					}
				}
				JOINT LeftShoulder
				{
					OFFSET 0 0 0
					CHANNELS 3 Zrotation Yrotation Xrotation
					JOINT LeftArm
					{
						OFFSET 3.19178 1.35907 -0.31412
						CHANNELS 3 Zrotation Yrotation Xrotation
						JOINT LeftForeArm
						{
							OFFSET 4.85247 -0.00000 -0.00000
							CHANNELS 3 Zrotation Yrotation Xrotation
							JOINT LeftHand
							{
								OFFSET 3.55584 -0.00000 0.00000
								CHANNELS 3 Zrotation Yrotation Xrotation
								JOINT LeftFingerBase
								{
									OFFSET 0 0 0
									CHANNELS 3 Zrotation Yrotation Xrotation
									JOINT LeftHandIndex1
									{
										OFFSET 0.69320 -0.00000 0.00000
										CHANNELS 3 Zrotation Yrotation Xrotation
										End Site
										{
											OFFSET 0.55888 -0.00000 0.00000
										}
									}
								}
								JOINT LThumb
								{
									OFFSET 0 0 0
									CHANNELS 3 Zrotation Yrotation Xrotation
									End Site
									{
										OFFSET 0.56741 -0.00000 0.56741
									}
								}
							}
						}
					}
				}
				JOINT RightShoulder
				{
					OFFSET 0 0 0
					CHANNELS 3 Zrotation Yrotation Xrotation
					JOINT RightArm
					{
						OFFSET -3.28999 1.24191 -0.26899
						CHANNELS 3 Zrotation Yrotation Xrotation
						JOINT RightForeArm
						{
							OFFSET -4.64462 -0.00000 0.00000
							CHANNELS 3 Zrotation Yrotation Xrotation
							JOINT RightHand
							{
								OFFSET -3.40703 -0.00000 0.00000
								CHANNELS 3 Zrotation Yrotation Xrotation
								JOINT RightFingerBase
								{
									OFFSET 0 0 0
									CHANNELS 3 Zrotation Yrotation Xrotation
									JOINT RightHandIndex1
									{
										OFFSET -0.61958 -0.00000 0.00000
										CHANNELS 3 Zrotation Yrotation Xrotation
										End Site
										{
											OFFSET -0.49952 -0.00000 0.00000
										}
									}
								}
								JOINT RThumb
								{
									OFFSET 0 0 0
									CHANNELS 3 Zrotation Yrotation Xrotation
									End Site
									{
										OFFSET -0.50715 -0.00000 0.50715
									}
								}
							}
						}
					}
				}
			}
		}
	}
}
MOTION
Frames: 6
Frame Time: .0083333
7.3966 17.0053 5.4227 530.8300 80.8067 525.1340 0.0000 0.0000 0.0000 -11.3424 6.7025 -7.8117 2.5856 9.9919 28.9506 1.0385 -2.1419 -18.6625 1.4544 -7.6227 -21.5739 0.0000 0.0000 0.0000 22.3090 -16.6276 12.6579 -0.1583 -2.5634 7.0655 -1.7193 3.8522 -23.8595 -0.2560 -3.2552 8.9902 0.2531 4.2783 2.1080 -1.3630 5.7903 2.8867 -1.5504 2.9436 1.9528 -0.8017 -3.3870 -23.8944 1.9232 -4.8226 18.3672 0.0795 -2.0374 9.8244 -0.0000 0.0000 0.0000 -74.8526 32.0875 -0.5871 17.3481 -27.3144 -4.2459 -0.0000 0.0000 -15.3590 25.4977 -18.8408 -8.7558 -7.1250 0.0000 -0.0000 -1.7455 9.2789 1.4419 -0.0000 0.0000 0.0000 69.5414 10.0234 36.0006 -93.4509 59.9550 -62.9881 0.0000 -0.0000 -7.8954 -13.3264 -29.2772 6.6078 7.1250 -0.0000 -0.0000 19.9084 -58.8049 -6.8907
7.4333 17.0038 5.4522 526.5930 80.9707 521.1140 0.0000 0.0000 0.0000 -13.0306 5.9880 -8.6088 2.5714 9.9667 28.8689 1.0087 -3.2110 -18.1775 1.3827 -7.4406 -21.0273 0.0000 0.0000 0.0000 21.5622 -16.6891 12.7864 -0.1498 -2.4941 6.8733 -1.7114 4.2796 -23.7331 -0.2348 -3.1186 8.6090 -0.1940 4.3839 2.0896 -1.4303 5.9376 3.0406 -1.3645 3.0122 2.0882 -0.7219 -3.3010 -23.7326 1.9075 -4.7225 18.1516 0.0805 -1.9925 9.7155 -0.0000 -0.0000 0.0000 -75.2921 32.1319 0.4231 17.5196 -27.5376 -4.3248 -0.0000 0.0000 -15.4007 25.7808 -19.3267 -9.0820 -7.1250 0.0000 -0.0000 -1.6122 8.7064 1.3502 -0.0000 -0.0000 0.0000 69.4952 10.7226 36.3243 -92.5819 59.9748 -62.2358 0.0000 -0.0000 -8.2783 -12.7803 -29.6235 6.3975 7.1250 -0.0000 -0.0000 20.7280 -59.0057 -7.2905
7.4650 17.0058 5.4811 526.3110 81.4673 521.0370 0.0000 0.0000 0.0000 -13.7743 5.4696 -9.4791 2.5767 9.9761 28.8995 0.9825 -4.3512 -17.7812 1.2938 -7.2067 -20.3293 0.0000 0.0000 0.0000 21.7121 -16.6478 12.7796 -0.1436 -2.4425 6.7302 -1.6643 4.7491 -23.3242 -0.2916 -3.4724 9.5969 0.1151 4.5457 2.0669 -1.3203 6.1572 3.1670 -1.4124 3.1286 2.2571 -0.5373 -3.2824 -23.7238 1.7452 -4.7219 18.1233 -0.0055 -1.9995 9.6946 0.0000 -0.0000 0.0000 -75.7471 31.9538 1.1249 17.5125 -27.5284 -4.3216 -0.0000 0.0000 -14.8772 25.9016 -19.8567 -9.3664 -7.1250 0.0000 -0.0000 -1.5909 8.1127 1.3510 0.0000 -0.0000 0.0000 69.6312 11.2610 36.4999 -91.6385 59.9899 -61.4189 0.0000 -0.0000 -8.6328 -12.4473 -29.8566 6.2709 7.1250 -0.0000 -0.0000 21.2476 -59.1469 -7.5562
7.4897 17.0116 5.5124 531.9430 82.2476 526.8630 0.0000 0.0000 0.0000 -13.3867 5.1521 -10.5169 2.6064 10.0288 29.0699 0.9781 -5.3237 -17.6679 1.2482 -7.0836 -19.9634 0.0000 0.0000 0.0000 23.0189 -16.4930 12.6228 -0.1359 -2.3757 6.5451 -1.6088 5.0382 -22.8800 -0.3212 -3.6428 10.0739 1.2813 4.7136 2.1223 -0.9740 6.3779 3.2012 -1.6986 3.2595 2.3560 -0.5543 -3.2798 -23.6766 1.8240 -4.7312 18.1742 0.0237 -1.9945 9.7073 0.0000 -0.0000 0.0000 -76.1120 31.8708 1.8665 17.4656 -27.4675 -4.2999 -0.0000 0.0000 -13.9548 25.7716 -20.0414 -9.3949 -7.1250 0.0000 -0.0000 -1.6941 7.9358 1.4446 0.0000 -0.0000 0.0000 69.6979 11.8375 36.8297 -90.3712 59.9995 -60.3215 0.0000 -0.0000 -9.1172 -12.6897 -29.8431 6.3934 7.1250 -0.0000 -0.0000 20.9857 -59.1894 -7.4794
7.5171 17.0157 5.5438 536.0390 82.8848 531.1800 0.0000 0.0000 0.0000 -13.4239 4.9359 -11.6069 2.6334 10.0766 29.2251 0.9707 -5.9209 -17.5801 1.2158 -6.9944 -19.6988 0.0000 0.0000 0.0000 23.8370 -16.4666 12.4404 -0.1287 -2.3128 6.3709 -1.5487 5.4059 -22.3929 -0.3231 -3.6536 10.1041 2.0689 4.8263 2.2199 -0.6984 6.5276 3.2105 -1.8547 3.3479 2.3742 -0.4829 -3.1341 -23.6328 1.9102 -4.5771 18.3068 0.0654 -1.9047 9.7460 0.0000 -0.0000 0.0000 -76.3735 31.9919 3.0099 17.3870 -27.3651 -4.2637 -0.0000 0.0000 -13.3000 25.4536 -20.1935 -9.3306 -7.1250 0.0000 -0.0000 -1.9137 7.8269 1.6362 0.0000 -0.0000 0.0000 69.7632 12.4001 37.3288 -88.9615 59.9959 -59.1006 0.0000 -0.0000 -9.4437 -12.7847 -29.6828 6.4113 7.1250 -0.0000 -0.0000 20.7671 -59.0618 -7.3332
7.5454 17.0207 5.5789 537.5070 83.5328 532.8690 0.0000 0.0000 0.0000 -13.9008 4.8607 -12.6776 2.6522 10.1095 29.3319 0.9558 -5.9872 -17.4414 1.4039 -7.4949 -21.1901 0.0000 0.0000 0.0000 24.2623 -16.1884 12.3829 -0.1245 -2.2745 6.2649 -1.4923 5.7008 -21.9393 -0.3830 -3.9745 11.0050 2.4682 4.9804 2.4246 -0.5714 6.7377 3.1855 -1.9620 3.4588 2.2763 -0.1179 -2.9889 -23.4642 1.6467 -4.4396 18.3334 -0.0628 -1.8477 9.7084 -0.0000 -0.0000 0.0000 -76.5520 32.1559 4.3417 17.3122 -27.2676 -4.2294 -0.0000 0.0000 -12.9593 25.0151 -20.9273 -9.4626 -7.1250 0.0000 -0.0000 -2.2715 7.1154 1.9742 -0.0000 -0.0000 0.0000 70.0229 12.7965 37.7143 -87.5148 59.9766 -57.8479 0.0000 -0.0000 -9.6490 -12.4678 -29.7001 6.2517 7.1250 -0.0000 -0.0000 21.1093 -59.0066 -7.4326
